<svg version="1" xmlns="http://www.w3.org/2000/svg" width="889.333" height="889.333" viewBox="0 0 667.000000 667.000000"><path d="M308 131.3c-6 2.1-6 2-5.8 64 0 36.6-.3 56.2-.9 56.8-1.7 1.7-8.3 2.9-15.9 2.9-6.6 0-7.2-.2-7.8-2.3-.3-1.2-.6-27.2-.7-57.7 0-30.5-.4-56.6-.8-57.9-1.1-3.9-5.5-4.5-20.5-2.7-21.2 2.6-44.8 6.7-47.8 8.2l-2.8 1.5V487.8l2.5.4c1.4.3 4.6.2 7.2-.3 2.7-.4 14.3-1.9 25.8-3.4 28.9-3.6 32.6-4.2 34.4-6 1.4-1.4 1.7-10.2 2.1-75 .3-40.3.8-73.7 1.2-74 1.1-1.2 8.8-2.4 15-2.5 9.6 0 8.8-6.5 8.8 72.8 0 38.3.5 71.5 1 73.6.4 2.1 1.4 4.2 2 4.6.6.4 15.7.6 33.6.6 31-.1 32.6-.2 34-2 1.2-1.7 1.4-26.4 1.2-172.5l-.3-170.6-3-1.5c-4.1-2-57.1-2.7-62.5-.7zM393.8 133.6c-.9.3-2 1.3-2.5 2.2-1 2.2-1.6 333.6-.5 338.8.7 3.4 1.2 4 4.7 5.1 2.2.6 9.4 1.6 16 2.2 6.6.7 15.4 1.8 19.6 2.6 4.1.9 12.4 2.1 18.3 2.7 9.2 1.1 10.9 1 11.7-.2 1.1-1.9.7-339.8-.4-342.2-.5-.9-1.6-1.9-2.5-2.3-7.7-2.9-60-10.1-64.4-8.9zM151.5 154.7c-1.1.2-9.9 2.9-19.5 6-25.8 8.1-49.7 17.3-68.7 26.4-9 4.3-11.4 6-19.6 14.2-7.1 7-10.2 11.1-13.4 17.2-8.2 15.9-7.6 3-7.5 157.6 0 124.4.2 137.9 1.6 141.4 3.7 8.8 11.3 15.3 20.6 17.5 4.1 1 6.4.9 13.1-.5 13.6-2.7 77.6-24.9 91.1-31.5 16.4-8 26.9-18.4 33.9-33.3 6-13 6-11.6 5.7-159.5l-.3-133.7-2.3-5.6c-4.4-11-13.9-17-26.5-16.8-3.4.1-7.1.3-8.2.6zm-37.6 85.2c1.1 1.1 2.4 3.7 2.8 5.8.4 2.1.8 45.6.8 96.8 0 92.7 0 93-2.1 97.6-2.6 5.6-5.7 8.6-10.2 9.9-4.6 1.2-7.6-.1-9.6-4.5-1.6-3.4-1.7-10.5-1.6-98.7l.1-95.2 3-5.7c1.7-3.1 4-6.1 5.2-6.7 3.7-1.8 9.5-1.4 11.6.7zM500.1 155c-9.5 2-16.5 8.2-20.2 18-1.8 4.9-1.9 9.2-1.9 140.9 0 147.9-.2 143.5 5.6 159 6.6 17.9 17.5 25.5 56.9 39.8 60.7 22 66.1 23.7 74.5 23.7 14.2-.1 25.9-11.1 29-27.3.6-3.5 1-51.7 1-136 0-143.6.2-137-6.2-151.1-8.7-18.9-22.6-31.1-47.5-41.4-13-5.4-46.3-17.2-64.3-22.8-10.4-3.2-20.1-4.2-26.9-2.8zm67.6 86.4c5.3 6.3 5.3 5.3 5.3 105.8 0 97.7 0 97-4.4 100.7-.9.7-3.4 1.4-5.7 1.4-4.8 0-7.9-2.6-11.1-9.2l-2.2-4.6-.2-89.5c0-49.2.2-92.9.7-97 .9-9.5 2.9-11.5 10.3-10.7 3.8.3 5.5 1.1 7.3 3.1z"/></svg>